<svg id="SvgjsSvg1001" width="288" height="288" xmlns="http://www.w3.org/2000/svg" version="1.1" xmlns:xlink="http://www.w3.org/1999/xlink" xmlns:svgjs="http://svgjs.com/svgjs"><defs id="SvgjsDefs1002"></defs><g id="SvgjsG1008"><svg xmlns="http://www.w3.org/2000/svg" viewBox="0 0 50 50" width="288" height="288"><path fill="#000000" d="M 24.78125 0 C 24.085938 0 23.390625 0.152344 22.863281 0.457031 L 4.527344 11.042969 C 3.472656 11.652344 2.609375 13.148438 2.609375 14.367188 L 2.609375 35.539062 C 2.609375 36.148438 2.824219 36.828125 3.171875 37.429688 C 3.519531 38.03125 4 38.558594 4.527344 38.863281 L 22.859375 49.449219 C 23.917969 50.058594 25.644531 50.058594 26.703125 49.449219 L 45.035156 38.863281 C 45.5625 38.558594 46.042969 38.03125 46.394531 37.429688 C 46.742188 36.828125 46.957031 36.148438 46.957031 35.539062 L 46.957031 14.367188 C 46.957031 13.757812 46.742188 13.078125 46.394531 12.476562 C 46.042969 11.871094 45.5625 11.347656 45.035156 11.042969 L 26.703125 0.457031 C 26.175781 0.152344 25.480469 0 24.78125 0 Z M 24.78125 10.167969 C 30.042969 10.167969 34.945312 13 37.585938 17.554688 L 31.1875 21.257812 C 29.867188 18.980469 27.414062 17.5625 24.785156 17.5625 C 20.707031 17.5625 17.390625 20.875 17.390625 24.953125 C 17.390625 29.027344 20.707031 32.34375 24.78125 32.34375 C 27.414062 32.34375 29.867188 30.929688 31.1875 28.644531 L 37.585938 32.347656 C 34.949219 36.902344 30.042969 39.734375 24.78125 39.734375 C 16.632812 39.734375 10 33.101562 10 24.953125 C 10 16.800781 16.632812 10.167969 24.78125 10.167969 Z M 36.28125 22.488281 L 37.921875 22.488281 L 37.921875 24.132812 L 39.5625 24.132812 L 39.5625 25.773438 L 37.921875 25.773438 L 37.921875 27.417969 L 36.28125 27.417969 L 36.28125 25.773438 L 34.636719 25.773438 L 34.636719 24.132812 L 36.28125 24.132812 Z M 42.441406 22.488281 L 44.082031 22.488281 L 44.082031 24.132812 L 45.726562 24.132812 L 45.726562 25.773438 L 44.082031 25.773438 L 44.082031 27.417969 L 42.441406 27.417969 L 42.441406 25.773438 L 40.796875 25.773438 L 40.796875 24.132812 L 42.441406 24.132812 Z M 42.441406 22.488281 " class="svgShape color004482-0 selectable"></path></svg></g></svg>